<svg width="802" height="802" viewBox="0 0 802 802" fill="none" xmlns="http://www.w3.org/2000/svg">
<rect x="1" y="1" width="800" height="800" rx="10" fill="#B09292" fill-opacity="0.71"/>
<path d="M330.044 474.5L400.5 403.135L470.956 474.5H330.044Z" fill="#FFFF00" fill-opacity="0.25" stroke="#FFFF00" stroke-width="3"/>
<path d="M327.5 330.044L398.865 400.5L327.5 470.956V330.044Z" fill="#00FF00" fill-opacity="0.25" stroke="#00FF00" stroke-width="3"/>
<path d="M470.956 327.5L400.5 398.865L330.044 327.5H470.956Z" fill="#FF0000" fill-opacity="0.25" stroke="#FF0000" stroke-width="3"/>
<path d="M474.5 470.956L403.135 400.5L474.5 330.044V470.956Z" fill="#0000FF" fill-opacity="0.25" stroke="#0000FF" stroke-width="3"/>
<rect x="326" y="776" width="300" height="150" rx="10" transform="rotate(-90 326 776)" stroke="#ECD5D5" stroke-width="5"/>
<rect x="326" y="776" width="50" height="50" rx="10" transform="rotate(-90 326 776)" fill="#ECD5D5" fill-opacity="0.25" stroke="#ECD5D5" stroke-width="3"/>
<rect x="426" y="526" width="50" height="50" rx="10" transform="rotate(-90 426 526)" fill="#ECD5D5" fill-opacity="0.25" stroke="#ECD5D5" stroke-width="3"/>
<rect x="426" y="576" width="50" height="50" rx="10" transform="rotate(-90 426 576)" fill="#ECD5D5" fill-opacity="0.25" stroke="#ECD5D5" stroke-width="3"/>
<rect x="426" y="626" width="50" height="50" rx="10" transform="rotate(-90 426 626)" fill="#ECD5D5" fill-opacity="0.25" stroke="#ECD5D5" stroke-width="3"/>
<rect x="426" y="726" width="50" height="50" rx="10" transform="rotate(-90 426 726)" fill="#ECD5D5" fill-opacity="0.25" stroke="#ECD5D5" stroke-width="3"/>
<rect x="426" y="776" width="50" height="50" rx="10" transform="rotate(-90 426 776)" fill="#ECD5D5" fill-opacity="0.25" stroke="#ECD5D5" stroke-width="3"/>
<rect x="376" y="776" width="50" height="50" rx="10" transform="rotate(-90 376 776)" fill="#ECD5D5" fill-opacity="0.25" stroke="#ECD5D5" stroke-width="3"/>
<rect x="326" y="576" width="50" height="50" rx="10" transform="rotate(-90 326 576)" fill="#ECD5D5" fill-opacity="0.25" stroke="#ECD5D5" stroke-width="3"/>
<rect x="326" y="526" width="50" height="50" rx="10" transform="rotate(-90 326 526)" fill="#ECD5D5" fill-opacity="0.25" stroke="#ECD5D5" stroke-width="3"/>
<rect x="326" y="626" width="50" height="50" rx="10" transform="rotate(-90 326 626)" fill="#ECD5D5" fill-opacity="0.25" stroke="#ECD5D5" stroke-width="3"/>
<rect x="326" y="676" width="50" height="50" rx="10" transform="rotate(-90 326 676)" fill="#ECD5D5" fill-opacity="0.25" stroke="#ECD5D5" stroke-width="3"/>
<rect x="326" y="726" width="50" height="50" rx="10" transform="rotate(-90 326 726)" fill="#FFFF00" fill-opacity="0.25" stroke="#FFFF00" stroke-width="3"/>
<rect x="376" y="726" width="50" height="50" rx="10" transform="rotate(-90 376 726)" fill="#FFFF00" fill-opacity="0.25" stroke="#FFFF00" stroke-width="3"/>
<rect x="426" y="676" width="50" height="50" rx="10" transform="rotate(-90 426 676)" fill="#0000FF" fill-opacity="0.25" stroke="#0000FF" stroke-width="3"/>
<rect x="376" y="676" width="50" height="50" rx="10" transform="rotate(-90 376 676)" fill="#FFFF00" fill-opacity="0.25" stroke="#FFFF00" stroke-width="3"/>
<rect x="376" y="626" width="50" height="50" rx="10" transform="rotate(-90 376 626)" fill="#FFFF00" fill-opacity="0.25" stroke="#FFFF00" stroke-width="3"/>
<rect x="376" y="576" width="50" height="50" rx="10" transform="rotate(-90 376 576)" fill="#FFFF00" fill-opacity="0.25" stroke="#FFFF00" stroke-width="3"/>
<rect x="376" y="526" width="50" height="50" rx="10" transform="rotate(-90 376 526)" fill="#FFFF00" fill-opacity="0.25" stroke="#FFFF00" stroke-width="3"/>
<rect x="26" y="326" width="300" height="150" rx="10" stroke="#ECD5D5" stroke-width="5"/>
<rect x="26" y="326" width="50" height="50" rx="10" fill="#ECD5D5" fill-opacity="0.25" stroke="#ECD5D5" stroke-width="3"/>
<rect x="276" y="426" width="50" height="50" rx="10" fill="#ECD5D5" fill-opacity="0.25" stroke="#ECD5D5" stroke-width="3"/>
<rect x="226" y="426" width="50" height="50" rx="10" fill="#ECD5D5" fill-opacity="0.25" stroke="#ECD5D5" stroke-width="3"/>
<rect x="176" y="426" width="50" height="50" rx="10" fill="#ECD5D5" fill-opacity="0.25" stroke="#ECD5D5" stroke-width="3"/>
<rect x="76" y="426" width="50" height="50" rx="10" fill="#ECD5D5" fill-opacity="0.25" stroke="#ECD5D5" stroke-width="3"/>
<rect x="26" y="426" width="50" height="50" rx="10" fill="#ECD5D5" fill-opacity="0.25" stroke="#ECD5D5" stroke-width="3"/>
<rect x="26" y="376" width="50" height="50" rx="10" fill="#ECD5D5" fill-opacity="0.25" stroke="#ECD5D5" stroke-width="3"/>
<rect x="226" y="326" width="50" height="50" rx="10" fill="#ECD5D5" fill-opacity="0.25" stroke="#ECD5D5" stroke-width="3"/>
<rect x="276" y="326" width="50" height="50" rx="10" fill="#ECD5D5" fill-opacity="0.25" stroke="#ECD5D5" stroke-width="3"/>
<rect x="176" y="326" width="50" height="50" rx="10" fill="#ECD5D5" fill-opacity="0.25" stroke="#ECD5D5" stroke-width="3"/>
<rect x="126" y="326" width="50" height="50" rx="10" fill="#ECD5D5" fill-opacity="0.25" stroke="#ECD5D5" stroke-width="3"/>
<rect x="276" y="376" width="50" height="50" rx="10" fill="#00FF00" fill-opacity="0.25" stroke="#00FF00" stroke-width="3"/>
<rect x="226" y="376" width="50" height="50" rx="10" fill="#00FF00" fill-opacity="0.25" stroke="#00FF00" stroke-width="3"/>
<rect x="176" y="376" width="50" height="50" rx="10" fill="#00FF00" fill-opacity="0.25" stroke="#00FF00" stroke-width="3"/>
<rect x="76" y="376" width="50" height="50" rx="10" fill="#00FF00" fill-opacity="0.25" stroke="#00FF00" stroke-width="3"/>
<rect x="76" y="326" width="50" height="50" rx="10" fill="#00FF00" fill-opacity="0.25" stroke="#00FF00" stroke-width="3"/>
<rect x="126" y="426" width="50" height="50" rx="10" fill="#FFFF00" fill-opacity="0.25" stroke="#FFFF00" stroke-width="3"/>
<rect x="126" y="376" width="50" height="50" rx="10" fill="#00FF00" fill-opacity="0.25" stroke="#00FF00" stroke-width="3"/>
<rect x="476" y="26" width="300" height="150" rx="10" transform="rotate(90 476 26)" stroke="#ECD5D5" stroke-width="5"/>
<rect x="476" y="26" width="50" height="50" rx="10" transform="rotate(90 476 26)" fill="#ECD5D5" fill-opacity="0.25" stroke="#ECD5D5" stroke-width="3"/>
<rect x="376" y="276" width="50" height="50" rx="10" transform="rotate(90 376 276)" fill="#ECD5D5" fill-opacity="0.25" stroke="#ECD5D5" stroke-width="3"/>
<rect x="376" y="226" width="50" height="50" rx="10" transform="rotate(90 376 226)" fill="#ECD5D5" fill-opacity="0.25" stroke="#ECD5D5" stroke-width="3"/>
<rect x="376" y="176" width="50" height="50" rx="10" transform="rotate(90 376 176)" fill="#ECD5D5" fill-opacity="0.25" stroke="#ECD5D5" stroke-width="3"/>
<rect x="376" y="76" width="50" height="50" rx="10" transform="rotate(90 376 76)" fill="#ECD5D5" fill-opacity="0.25" stroke="#ECD5D5" stroke-width="3"/>
<rect x="376" y="26" width="50" height="50" rx="10" transform="rotate(90 376 26)" fill="#ECD5D5" fill-opacity="0.25" stroke="#ECD5D5" stroke-width="3"/>
<rect x="426" y="26" width="50" height="50" rx="10" transform="rotate(90 426 26)" fill="#ECD5D5" fill-opacity="0.25" stroke="#ECD5D5" stroke-width="3"/>
<rect x="476" y="226" width="50" height="50" rx="10" transform="rotate(90 476 226)" fill="#ECD5D5" fill-opacity="0.25" stroke="#ECD5D5" stroke-width="3"/>
<rect x="476" y="276" width="50" height="50" rx="10" transform="rotate(90 476 276)" fill="#ECD5D5" fill-opacity="0.25" stroke="#ECD5D5" stroke-width="3"/>
<rect x="476" y="176" width="50" height="50" rx="10" transform="rotate(90 476 176)" fill="#ECD5D5" fill-opacity="0.25" stroke="#ECD5D5" stroke-width="3"/>
<rect x="476" y="126" width="50" height="50" rx="10" transform="rotate(90 476 126)" fill="#ECD5D5" fill-opacity="0.25" stroke="#ECD5D5" stroke-width="3"/>
<rect x="476" y="76" width="50" height="50" rx="10" transform="rotate(90 476 76)" fill="#FF0000" fill-opacity="0.25" stroke="#FF0000" stroke-width="3"/>
<rect x="426" y="76" width="50" height="50" rx="10" transform="rotate(90 426 76)" fill="#FF0000" fill-opacity="0.25" stroke="#FF0000" stroke-width="3"/>
<rect x="376" y="126" width="50" height="50" rx="10" transform="rotate(90 376 126)" fill="#00FF00" fill-opacity="0.25" stroke="#00FF00" stroke-width="3"/>
<rect x="426" y="126" width="50" height="50" rx="10" transform="rotate(90 426 126)" fill="#FF0000" fill-opacity="0.25" stroke="#FF0000" stroke-width="3"/>
<rect x="426" y="176" width="50" height="50" rx="10" transform="rotate(90 426 176)" fill="#FF0000" fill-opacity="0.25" stroke="#FF0000" stroke-width="3"/>
<rect x="426" y="226" width="50" height="50" rx="10" transform="rotate(90 426 226)" fill="#FF0000" fill-opacity="0.25" stroke="#FF0000" stroke-width="3"/>
<rect x="426" y="276" width="50" height="50" rx="10" transform="rotate(90 426 276)" fill="#FF0000" fill-opacity="0.25" stroke="#FF0000" stroke-width="3"/>
<rect x="776" y="476" width="300" height="150" rx="10" transform="rotate(180 776 476)" stroke="#ECD5D5" stroke-width="5"/>
<rect x="776" y="476" width="50" height="50" rx="10" transform="rotate(180 776 476)" fill="#ECD5D5" fill-opacity="0.25" stroke="#ECD5D5" stroke-width="3"/>
<rect x="526" y="376" width="50" height="50" rx="10" transform="rotate(180 526 376)" fill="#ECD5D5" fill-opacity="0.25" stroke="#ECD5D5" stroke-width="3"/>
<rect x="576" y="376" width="50" height="50" rx="10" transform="rotate(180 576 376)" fill="#ECD5D5" fill-opacity="0.25" stroke="#ECD5D5" stroke-width="3"/>
<rect x="626" y="376" width="50" height="50" rx="10" transform="rotate(180 626 376)" fill="#ECD5D5" fill-opacity="0.25" stroke="#ECD5D5" stroke-width="3"/>
<rect x="726" y="376" width="50" height="50" rx="10" transform="rotate(180 726 376)" fill="#ECD5D5" fill-opacity="0.25" stroke="#ECD5D5" stroke-width="3"/>
<rect x="776" y="376" width="50" height="50" rx="10" transform="rotate(180 776 376)" fill="#ECD5D5" fill-opacity="0.25" stroke="#ECD5D5" stroke-width="3"/>
<rect x="776" y="426" width="50" height="50" rx="10" transform="rotate(180 776 426)" fill="#ECD5D5" fill-opacity="0.25" stroke="#ECD5D5" stroke-width="3"/>
<rect x="576" y="476" width="50" height="50" rx="10" transform="rotate(180 576 476)" fill="#ECD5D5" fill-opacity="0.25" stroke="#ECD5D5" stroke-width="3"/>
<rect x="526" y="476" width="50" height="50" rx="10" transform="rotate(180 526 476)" fill="#ECD5D5" fill-opacity="0.25" stroke="#ECD5D5" stroke-width="3"/>
<rect x="626" y="476" width="50" height="50" rx="10" transform="rotate(180 626 476)" fill="#ECD5D5" fill-opacity="0.25" stroke="#ECD5D5" stroke-width="3"/>
<rect x="676" y="476" width="50" height="50" rx="10" transform="rotate(180 676 476)" fill="#ECD5D5" fill-opacity="0.25" stroke="#ECD5D5" stroke-width="3"/>
<rect x="726" y="476" width="50" height="50" rx="10" transform="rotate(180 726 476)" fill="#0000FF" fill-opacity="0.25" stroke="#0000FF" stroke-width="3"/>
<rect x="726" y="426" width="50" height="50" rx="10" transform="rotate(180 726 426)" fill="#0000FF" fill-opacity="0.25" stroke="#0000FF" stroke-width="3"/>
<rect x="676" y="376" width="50" height="50" rx="10" transform="rotate(180 676 376)" fill="#FF0000" fill-opacity="0.25" stroke="#FF0000" stroke-width="3"/>
<rect x="676" y="426" width="50" height="50" rx="10" transform="rotate(180 676 426)" fill="#0000FF" fill-opacity="0.25" stroke="#0000FF" stroke-width="3"/>
<rect x="626" y="426" width="50" height="50" rx="10" transform="rotate(180 626 426)" fill="#0000FF" fill-opacity="0.25" stroke="#0000FF" stroke-width="3"/>
<rect x="576" y="426" width="50" height="50" rx="10" transform="rotate(180 576 426)" fill="#0000FF" fill-opacity="0.25" stroke="#0000FF" stroke-width="3"/>
<rect x="526" y="426" width="50" height="50" rx="10" transform="rotate(180 526 426)" fill="#0000FF" fill-opacity="0.25" stroke="#0000FF" stroke-width="3"/>
<rect x="152.5" y="677.5" width="47" height="47" rx="8.5" fill="#FFFF00" fill-opacity="0.25" stroke="#FFFF00" stroke-width="3"/>
<rect x="227.5" y="602.5" width="47" height="47" rx="8.5" fill="#FFFF00" fill-opacity="0.25" stroke="#FFFF00" stroke-width="3"/>
<rect x="152.5" y="527.5" width="47" height="47" rx="8.5" fill="#FFFF00" fill-opacity="0.25" stroke="#FFFF00" stroke-width="3"/>
<rect x="77.5" y="602.5" width="47" height="47" rx="8.5" fill="#FFFF00" fill-opacity="0.25" stroke="#FFFF00" stroke-width="3"/>
<rect x="28.8284" y="626" width="208.132" height="208.132" rx="8" transform="rotate(-45 28.8284 626)" fill="#FFFF00" fill-opacity="0.1" stroke="#FFFF00" stroke-width="4"/>
<rect x="26" y="476" width="300" height="300" rx="10" fill="#FFFF00" fill-opacity="0.25" stroke="#FFFF00" stroke-width="5" stroke-linecap="round" stroke-linejoin="bevel"/>
<rect x="602.5" y="677.5" width="47" height="47" rx="8.5" fill="#0000FF" fill-opacity="0.25" stroke="#0000FF" stroke-width="3"/>
<rect x="677.5" y="602.5" width="47" height="47" rx="8.5" fill="#0000FF" fill-opacity="0.25" stroke="#0000FF" stroke-width="3"/>
<rect x="602.5" y="527.5" width="47" height="47" rx="8.5" fill="#0000FF" fill-opacity="0.25" stroke="#0000FF" stroke-width="3"/>
<rect x="527.5" y="602.5" width="47" height="47" rx="8.5" fill="#0000FF" fill-opacity="0.25" stroke="#0000FF" stroke-width="3"/>
<rect x="478.828" y="626" width="208.132" height="208.132" rx="8" transform="rotate(-45 478.828 626)" fill="#0000FF" fill-opacity="0.1" stroke="#0000FF" stroke-width="4"/>
<rect x="476" y="476" width="300" height="300" rx="10" fill="#0000FF" fill-opacity="0.25" stroke="#0000FF" stroke-width="5" stroke-linecap="round" stroke-linejoin="bevel"/>
<rect x="602.5" y="227.5" width="47" height="47" rx="8.5" fill="#FF0000" fill-opacity="0.25" stroke="#FF0000" stroke-width="3"/>
<rect x="677.5" y="152.5" width="47" height="47" rx="8.5" fill="#FF0000" fill-opacity="0.25" stroke="#FF0000" stroke-width="3"/>
<rect x="602.5" y="77.5" width="47" height="47" rx="8.5" fill="#FF0000" fill-opacity="0.25" stroke="#FF0000" stroke-width="3"/>
<rect x="527.5" y="152.5" width="47" height="47" rx="8.5" fill="#FF0000" fill-opacity="0.25" stroke="#FF0000" stroke-width="3"/>
<rect x="478.828" y="176" width="208.132" height="208.132" rx="8" transform="rotate(-45 478.828 176)" fill="#FF0000" fill-opacity="0.1" stroke="#FF0000" stroke-width="4"/>
<rect x="476" y="26" width="300" height="300" rx="10" fill="#FF0000" fill-opacity="0.25" stroke="#FF0000" stroke-width="5" stroke-linecap="round" stroke-linejoin="bevel"/>
<rect x="152.5" y="227.5" width="47" height="47" rx="8.5" fill="#00FF00" fill-opacity="0.25" stroke="#00FF00" stroke-width="3"/>
<rect x="227.5" y="152.5" width="47" height="47" rx="8.5" fill="#00FF00" fill-opacity="0.25" stroke="#00FF00" stroke-width="3"/>
<rect x="152.5" y="77.5" width="47" height="47" rx="8.5" fill="#00FF00" fill-opacity="0.25" stroke="#00FF00" stroke-width="3"/>
<rect x="77.5" y="152.5" width="47" height="47" rx="8.5" fill="#00FF00" fill-opacity="0.25" stroke="#00FF00" stroke-width="3"/>
<rect x="28.8284" y="176" width="208.132" height="208.132" rx="8" transform="rotate(-45 28.8284 176)" fill="#00FF00" fill-opacity="0.1" stroke="#00FF00" stroke-width="4"/>
<rect x="26" y="26" width="300" height="300" rx="10" fill="#00FF00" fill-opacity="0.25" stroke="#00FF00" stroke-width="5" stroke-linecap="round" stroke-linejoin="bevel"/>
<rect x="1" y="1" width="800" height="800" rx="10" stroke="#808080" stroke-opacity="0.9"/>
</svg>
